<svg width="3840" height="2160" viewBox="0 0 3840 2160" fill="none" xmlns="http://www.w3.org/2000/svg">
<g clip-path="url(#clip0_1_2)">
<rect width="3840" height="2160" fill="black"/>
<g filter="url(#filter0_d_1_2)">
<path d="M0 0C274.39 5.70136 981.092 41.9108 1256.3 408.936C1558.61 812.103 2083.39 959.931 2083.39 959.931C2288.42 1041.79 2683.56 1259.99 2623.89 1477.94C2549.29 1750.38 3483.82 1622.91 3649.9 1806.58C3763.7 1910.68 3827.91 2013.74 3838.33 2095.92V0H0Z" fill="#FFC300"/>
<path d="M3838.33 2095.92C3827.91 2013.74 3763.7 1910.68 3649.9 1806.58C3483.82 1622.91 2549.29 1750.38 2623.89 1477.94C2683.56 1259.99 2288.42 1041.79 2083.39 959.931C2083.39 959.931 1558.61 812.103 1256.3 408.936C981.092 41.9108 274.39 5.70136 0 0H3838.33V2095.92ZM3838.33 2095.92V2160C3838.33 2144.85 3842.09 2125.56 3838.33 2095.92Z" stroke="#FFC300"/>
</g>
</g>
<defs>
<filter id="filter0_d_1_2" x="-4.01038" y="-0.5" width="3848.51" height="2168.5" filterUnits="userSpaceOnUse" color-interpolation-filters="sRGB">
<feFlood flood-opacity="0" result="BackgroundImageFix"/>
<feColorMatrix in="SourceAlpha" type="matrix" values="0 0 0 0 0 0 0 0 0 0 0 0 0 0 0 0 0 0 127 0" result="hardAlpha"/>
<feOffset dy="4"/>
<feGaussianBlur stdDeviation="2"/>
<feComposite in2="hardAlpha" operator="out"/>
<feColorMatrix type="matrix" values="0 0 0 0 0 0 0 0 0 0 0 0 0 0 0 0 0 0 0.25 0"/>
<feBlend mode="normal" in2="BackgroundImageFix" result="effect1_dropShadow_1_2"/>
<feBlend mode="normal" in="SourceGraphic" in2="effect1_dropShadow_1_2" result="shape"/>
</filter>
<clipPath id="clip0_1_2">
<rect width="3840" height="2160" fill="white"/>
</clipPath>
</defs>
</svg>
