<svg id="visual" viewBox="0 0 3840 2160" width="3840" height="2160" xmlns="http://www.w3.org/2000/svg" xmlns:xlink="http://www.w3.org/1999/xlink" version="1.1"><rect x="0" y="0" width="3840" height="2160" fill="#000"></rect><path d="M1733 2160L1899.7 2070C2066.3 1980 2399.7 1800 2465 1620C2530.3 1440 2327.7 1260 2392.8 1080C2458 900 2791 720 2515.7 540C2240.3 360 1356.7 180 914.8 90L473 0L3840 0L3840 90C3840 180 3840 360 3840 540C3840 720 3840 900 3840 1080C3840 1260 3840 1440 3840 1620C3840 1800 3840 1980 3840 2070L3840 2160Z" fill="#FFC300" stroke-linecap="round" stroke-linejoin="miter"></path></svg>