<svg id="visual" viewBox="0 0 3840 2160" width="3840" height="2160" xmlns="http://www.w3.org/2000/svg" xmlns:xlink="http://www.w3.org/1999/xlink" version="1.1"><rect x="0" y="0" width="3840" height="2160" fill="#000"></rect><path d="M1738 2160L1754.8 2100C1771.7 2040 1805.3 1920 1838.7 1800C1872 1680 1905 1560 1731.8 1440C1558.7 1320 1179.3 1200 1329.8 1080C1480.3 960 2160.7 840 2452.2 720C2743.7 600 2646.3 480 2176.7 360C1707 240 865 120 444 60L23 0L3840 0L3840 60C3840 120 3840 240 3840 360C3840 480 3840 600 3840 720C3840 840 3840 960 3840 1080C3840 1200 3840 1320 3840 1440C3840 1560 3840 1680 3840 1800C3840 1920 3840 2040 3840 2100L3840 2160Z" fill="#FFC300" stroke-linecap="round" stroke-linejoin="miter"></path></svg>